<?xml version="1.0" encoding="UTF-8"?>
<svg id="_レイヤー_1" data-name="レイヤー 1" xmlns="http://www.w3.org/2000/svg" viewBox="0 0 500 500">
  <defs>
    <style>
      .cls-1 {
        fill: none;
        stroke: #5a5b5b;
        stroke-miterlimit: 10;
        stroke-width: 14px;
      }

      .cls-2 {
        fill: #008037;
      }

      .cls-3 {
        fill: #991126;
      }

      .cls-4 {
        fill: #063689;
      }
    </style>
  </defs>
  <g>
    <polygon class="cls-4" points="101.47 217.81 36.06 208.73 36.06 278.68 72.08 278.68 72.08 244.38 101.47 253.53 101.47 277 149.81 235.17 101.47 193.35 101.47 217.81"/>
    <polygon class="cls-3" points="450.07 153.07 365.44 96.13 365.44 130.22 249.31 133.42 266.56 149.91 304.83 185.42 365.44 183.75 365.44 214.67 450.07 153.07"/>
    <polygon class="cls-3" points="249.15 133.43 101.55 137.5 101.55 180.81 156.92 225.05 156.92 194.97 156.92 189.5 193.56 188.49 231.91 150.72 249.15 133.43"/>
    <path class="cls-2" d="m297.49,464.81l-17.14-241.88h42.04l-71.73-71.59-71.73,71.59h35.13l-14.12,241.88h97.55Z"/>
  </g>
  <circle class="cls-1" cx="250" cy="250" r="236.71"/>
</svg>