<?xml version="1.0" encoding="UTF-8"?>
<svg id="_レイヤー_1" data-name="レイヤー 1" xmlns="http://www.w3.org/2000/svg" viewBox="0 0 1485.2 337.08">
  <defs>
    <style>
      .cls-1 {
        fill: #008037;
      }

      .cls-2 {
        fill: #991126;
      }

      .cls-3 {
        fill: #063689;
      }

      .cls-4 {
        fill: #494949;
      }
    </style>
  </defs>
  <g>
    <polygon class="cls-3" points="69.49 119.5 19.73 112.59 19.73 165.82 47.13 165.82 47.13 139.72 69.49 146.68 69.49 164.54 106.27 132.72 69.49 100.89 69.49 119.5"/>
    <polygon class="cls-2" points="334.74 70.24 270.34 26.92 270.34 52.86 181.98 55.29 195.1 67.84 224.22 94.86 270.34 93.59 270.34 117.11 334.74 70.24"/>
    <polygon class="cls-2" points="181.86 55.3 69.55 58.39 69.55 91.35 111.68 125.01 111.68 102.12 111.68 97.96 139.56 97.19 168.74 68.46 181.86 55.3"/>
    <path class="cls-1" d="m218.64,307.44l-13.04-184.04h31.98l-54.57-54.47-54.58,54.47h26.73l-10.74,184.04h74.22Z"/>
  </g>
  <path class="cls-4" d="m237.68,245.1c0-39.67,25.76-64.92,66.98-64.92s66.98,24.99,66.98,64.4-25.76,66.98-66.98,66.98-66.98-25.76-66.98-66.46Zm79.86.52c0-13.91-5.15-20.87-12.88-20.87s-12.88,6.96-12.88,20.87,5.15,21.38,12.88,21.38,12.88-7.21,12.88-21.38Z"/>
  <path class="cls-4" d="m388.13,184.3h52.55v15.46c6.7-10.56,17.52-18.55,33.75-18.55,14.43,0,26.02,7.99,32.72,19.58,11.59-15.2,23.7-19.58,37.1-19.58,22.93,0,39.16,15.71,39.16,40.7v85.53h-52.55v-72.65c0-6.18-4.38-9.79-9.79-9.79-3.35,0-6.96,2.06-9.02,4.64v77.8h-52.55v-72.65c0-6.18-4.38-9.79-9.79-9.79-3.86,0-7.21,1.29-9.02,4.38v78.06h-52.55v-123.14Z"/>
  <path class="cls-4" d="m598.86,245.1c0-39.67,25.76-64.92,66.98-64.92s66.98,24.99,66.98,64.4-25.76,66.98-66.98,66.98-66.98-25.76-66.98-66.46Zm79.86.52c0-13.91-5.15-20.87-12.88-20.87s-12.88,6.96-12.88,20.87,5.15,21.38,12.88,21.38,12.88-7.21,12.88-21.38Z"/>
  <path class="cls-4" d="m759.35,267.25v-40.7h-14.17v-42.25h14.17v-35.55h52.55v35.55h21.12v42.25h-21.12v25.76c0,7.47,4.12,12.37,10.82,12.37,4.64,0,8.76-1.55,12.37-4.38v43.79c-11.59,4.38-22.67,6.44-34.52,6.44-25.25,0-41.22-16.75-41.22-43.28Z"/>
  <path class="cls-4" d="m847.45,245.1c0-39.67,25.76-64.92,66.98-64.92s66.98,24.99,66.98,64.4-25.76,66.98-66.98,66.98-66.98-25.76-66.98-66.46Zm79.86.52c0-13.91-5.15-20.87-12.88-20.87s-12.88,6.96-12.88,20.87,5.15,21.38,12.88,21.38,12.88-7.21,12.88-21.38Z"/>
  <path class="cls-1" d="m1040.75,94.52h61.32v152.09h65.08v60.84h-126.4V94.52Z"/>
  <path class="cls-4" d="m1179.52,275.5c0-26.02,18.29-36.32,49.46-41.48l20.35-3.35v-3.61c0-7.47-7.47-11.08-22.93-11.08-14.17,0-26.79,3.86-39.67,11.33v-38.38c16.49-5.67,31.43-8.5,53.33-8.5,37.35,0,61.83,16.23,61.83,43.54v83.47h-49.72l-2.58-14.17c-6.96,11.59-17,17.26-32.2,17.26-22.15,0-37.87-15.71-37.87-35.04Zm69.81-5.41v-16.49l-8.5,1.29c-4.64.77-8.5,4.38-8.5,10.56,0,5.67,3.86,9.27,8.76,9.27,3.09,0,6.7-1.8,8.24-4.64Z"/>
  <path class="cls-4" d="m1321.46,301.26V122.99h52.55v77.29c6.7-10.3,17-19.06,34.26-19.06,27.05,0,40.96,24.47,40.96,61.05,0,41.73-27.05,68.27-69.81,68.27-19.84,0-38.64-3.09-57.96-9.27Zm74.19-52.81c0-14.17-4.64-21.12-13.65-21.12-2.58,0-5.67.77-7.99,2.06v38.9c2.58,1.03,4.9,1.29,7.47,1.29,9.02,0,14.17-6.7,14.17-21.12Z"/>
</svg>