<?xml version="1.0" encoding="UTF-8"?>
<svg id="_レイヤー_1" data-name="レイヤー 1" xmlns="http://www.w3.org/2000/svg" viewBox="0 0 500 500">
  <defs>
    <style>
      .cls-1 {
        fill: #008037;
      }

      .cls-2 {
        fill: #991126;
      }

      .cls-3 {
        fill: #063689;
      }
    </style>
  </defs>
  <polygon class="cls-3" points="85.02 176.99 8.81 166.41 8.81 247.92 50.77 247.92 50.77 207.95 85.02 218.61 85.02 245.95 141.34 197.22 85.02 148.49 85.02 176.99"/>
  <polygon class="cls-2" points="491.19 101.56 392.57 35.22 392.57 74.93 257.27 78.67 277.37 97.88 321.96 139.25 392.57 137.31 392.57 173.33 491.19 101.56"/>
  <polygon class="cls-2" points="257.08 78.67 85.11 83.41 85.11 133.88 149.63 185.43 149.63 150.38 149.63 144.01 192.32 142.83 236.99 98.82 257.08 78.67"/>
  <path class="cls-1" d="m313.41,464.78l-19.97-281.82h48.98l-83.57-83.41-83.57,83.41h40.93l-16.45,281.82h113.66Z"/>
</svg>