<?xml version="1.0" standalone="no"?>
<!DOCTYPE svg PUBLIC "-//W3C//DTD SVG 20010904//EN"
 "http://www.w3.org/TR/2001/REC-SVG-20010904/DTD/svg10.dtd">
<svg version="1.0" xmlns="http://www.w3.org/2000/svg"
 width="850.000000pt" height="850.000000pt" viewBox="0 0 850.000000 850.000000"
 preserveAspectRatio="xMidYMid meet">
<metadata>
Created by potrace 1.11, written by Peter Selinger 2001-2013
</metadata>
<g transform="translate(0.000000,850.000000) scale(0.100000,-0.100000)"
fill="#000000" stroke="none">
<path d="M7251 7818 c0 -112 0 -235 -1 -274 l0 -72 -2307 0 -2308 0 0 -1481
c0 -974 3 -1485 10 -1493 5 -7 71 -67 145 -133 74 -66 137 -122 140 -125 3 -3
43 -39 90 -80 47 -41 87 -77 90 -80 3 -3 43 -39 89 -80 46 -41 100 -90 120
-107 20 -18 38 -33 41 -33 3 0 5 615 5 1366 0 855 4 1368 10 1372 5 3 118 5
251 5 l243 -1 23 27 c22 25 160 188 293 346 123 146 160 190 165 195 3 3 60
71 127 152 l121 147 38 -47 c21 -26 41 -49 44 -52 3 -3 25 -30 50 -60 25 -30
47 -57 50 -60 3 -3 15 -17 26 -32 12 -15 41 -51 66 -80 63 -73 234 -274 376
-444 l77 -91 958 0 c526 0 960 -3 963 -6 4 -3 6 -114 6 -247 0 -132 3 -240 8
-240 4 0 18 10 32 23 14 12 51 45 84 72 32 28 79 68 104 90 25 23 92 81 150
130 58 50 107 92 110 95 3 3 55 48 115 100 176 152 479 414 494 428 13 12 8
20 -30 56 -24 22 -71 63 -104 91 -33 27 -64 55 -70 60 -5 6 -39 35 -75 65 -36
30 -69 59 -75 64 -5 6 -71 63 -145 126 -74 63 -139 120 -145 126 -5 6 -91 80
-190 165 -99 85 -191 164 -205 177 -61 57 -59 62 -59 -160z"/>
<path d="M4583 7016 c-4 -7 -31 -40 -59 -72 -127 -146 -400 -461 -509 -589
-66 -77 -125 -144 -131 -150 -15 -14 -244 -283 -244 -287 0 -2 105 -3 232 -3
l233 0 2 -2625 c1 -1444 2 -2637 2 -2651 l1 -27 1703 2 1702 1 1 332 1 333
-1259 0 -1258 0 -1 23 c-1 30 -1 2238 0 2258 1 14 100 16 1054 15 578 -1 1059
2 1067 5 13 6 15 52 14 341 -1 183 -2 335 -3 338 0 3 -478 5 -1062 5 -633 0
-1063 4 -1067 9 -7 13 -7 1620 1 1633 4 6 104 10 274 11 305 0 291 0 278 10
-6 4 -64 70 -130 147 -141 165 -167 194 -180 209 -5 6 -50 58 -100 116 -49 58
-92 107 -96 110 -3 3 -103 119 -223 257 -119 139 -221 255 -226 258 -5 3 -12
-1 -17 -9z"/>
<path d="M2110 4242 l0 -279 -985 1 -985 1 -1 -25 c-1 -33 -1 -3418 0 -3447
l1 -23 413 3 412 2 0 1332 c0 1178 2 1333 15 1334 19 1 599 1 897 0 l233 -1 2
-269 3 -269 75 65 c41 36 104 92 140 123 36 31 115 100 175 151 61 52 126 109
145 126 29 25 108 94 240 207 14 11 93 79 175 150 83 72 152 131 155 133 5 4
-43 50 -106 103 -45 36 -385 331 -394 340 -3 3 -36 32 -75 65 -38 33 -72 62
-75 65 -3 3 -34 30 -70 60 -36 30 -67 57 -70 60 -14 15 -297 257 -307 264 -10
6 -13 -51 -13 -272z"/>
</g>
</svg>
