<svg xmlns="http://www.w3.org/2000/svg" width="432.735" height="315.721" viewBox="0 0 432.735 315.721"><defs><style>.a{fill:#211715;}.b{fill:#d9d9d9;}.c{fill:#fff;}.d{fill:#b5886a;}.e{fill:#b2cfe9;}.f{fill:#65a0d4;}.g{fill:#6dbf6b;}.h{fill:#7a7473;}</style></defs><path class="a" d="M1.932,293.286l30.561,0,44.686,0,48.844-.006,42.914,0,26.991,0H197.6c2.574,0,2.578-4,0-4H173.251l-41.51,0-48.662.006-45.727.006-32.843,0H1.932c-2.574,0-2.578,4,0,4Z"/><path class="a" d="M250.076,201.316q-12.66,0-25.322.052-21.6.059-43.2.126-25.8.078-51.609.154-25.539.073-51.079.136-20.515.048-41.029.071l-3.86,0c-2.574,0-2.578,4,0,4q19.6-.007,39.206-.061,25.185-.056,50.369-.131,26.008-.074,52.017-.154,22.365-.067,44.729-.132,13.982-.039,27.961-.063h1.818c2.574,0,2.578-4,0-4Z"/><path class="a" d="M186.9,268.4c-4.914,0-9.829-.019-14.743-.029l-30.875-.068q-16.969-.036-33.938-.071-12.182-.024-24.362-.043c-1.014,0-2.034.03-3.047,0-1.783-.055-1.817-1.3-1.651-2.841a7.567,7.567,0,0,1,1.3-2.618q4.742-8.189,9.491-16.373,1.052-1.812,2.1-3.624c.317-.546.968-2.181,1.432-2.427a2.2,2.2,0,0,1,.86-.029h105.82c2.574,0,2.578-4,0-4H94.734c-2.384,0-4.415.017-5.865,2.453-3.132,5.261-6.145,10.6-9.216,15.894q-2.1,3.613-4.188,7.229c-.237.409-.487.813-.7,1.237a7.045,7.045,0,0,0-.5,3.292c.02,2.056.617,3.887,2.468,5,1.6.96,3.5.809,5.283.81l4.248.006,12.054.02q16.587.031,33.175.068l33.522.073q10.209.023,20.418.043l1.456,0c2.574,0,2.578-4,0-4Z"/><path class="a" d="M92.182,259.763c3.112-5.389,6.249-10.763,9.361-16.152,1.29-2.233-2.165-4.25-3.454-2.019-3.112,5.389-6.249,10.764-9.361,16.153-1.289,2.233,2.166,4.249,3.454,2.018Z"/><path class="a" d="M102.261,259.365c2.853-4.941,5.729-9.868,8.583-14.809,1.289-2.233-2.166-4.25-3.454-2.019-2.854,4.941-5.73,9.868-8.583,14.81-1.29,2.233,2.165,4.249,3.454,2.018Z"/><path class="a" d="M111.452,259.365c1.323-2.292,2.658-4.579,3.982-6.871a2,2,0,0,0-3.454-2.019c-1.324,2.293-2.658,4.579-3.982,6.872a2,2,0,1,0,3.454,2.018Z"/><path class="a" d="M120.575,259.365c1.324-2.292,2.658-4.579,3.982-6.871a2,2,0,0,0-3.454-2.019c-1.324,2.293-2.658,4.579-3.982,6.872a2,2,0,1,0,3.454,2.018Z"/><path class="a" d="M129.563,259.365c1.324-2.292,2.658-4.579,3.982-6.871a2,2,0,0,0-3.453-2.019c-1.324,2.293-2.659,4.579-3.983,6.872a2,2,0,1,0,3.454,2.018Z"/><path class="a" d="M143.587,243.855H94.274c-2.574,0-2.578,4,0,4h49.313c2.574,0,2.578-4,0-4Z"/><path class="a" d="M157.409,252q-27.684-.051-55.367-.144-6.047-.017-12.093-.029c-2.574,0-2.578,4,0,4q27.6.051,55.208.144,6.126.016,12.252.029c2.574,0,2.578-4,0-4Z"/><path class="a" d="M166.412,265.4h.011v-4c-8.244.032-16.489,0-24.732,0H83.523c-2.574,0-2.578,4,0,4H157.44c2.994,0,5.989.012,8.983,0,2.573-.01,2.578-3.992,0-4h-.011c-2.574,0-2.578,4,0,4Z"/><path class="b" d="M361.517,3.356c0,6.986.262,13.97.265,20.956,0,3.308-.065,6.615-.244,9.918q-.137,2.5-.358,5c-.085.947-.217,1.894-.282,2.841-.03.446.081-.42-.041.27-1.4,7.9-3.612,15.655-5.31,23.494-.8,3.716-1.836,7.641-1.863,11.467-.018,2.574,3.982,2.577,4,0a19.961,19.961,0,0,1,.42-3.813c.323-1.929.714-3.846,1.122-5.759.95-4.458,2.01-8.892,3.058-13.328.819-3.464,1.7-6.93,2.333-10.436a104.944,104.944,0,0,0,1.157-17.529c.067-7.694-.253-15.386-.257-23.08,0-2.574-4-2.579-4,0Z"/><path class="b" d="M335.083,89.106c-1.073-.7-.825-2.695-.817-3.767a20.1,20.1,0,0,1,.322-4.833,3.311,3.311,0,0,1,.481-1.192c.123-.195-.006-.018-.034.018a2.566,2.566,0,0,1,.245-.267c.056-.054.289-.237,0-.023a2.389,2.389,0,0,1,.292-.184c.285-.151-.188.025.242-.108.2-.063.41-.113.619-.156.387-.079.126-.021.039-.011.131-.015.268-.027.4-.033.282-.011.562-.022.845-.023,3.159,0,6.315.24,9.479.224,2.169-.011,4.337-.047,6.5-.073.232,0,.972-.123,1.147.01.035.027-.074-.033-.077-.037a6.827,6.827,0,0,1-.006,1.731c.054,3.415.1,6.831.1,10.247l2-2c-3.479.019-6.971.367-10.444.547-1.926.1-3.853.2-5.781.224-.925.012-1.852.033-2.777.024a7.052,7.052,0,0,1-2.777-.318c-2.315-1.093-4.348,2.355-2.019,3.454,2.121,1,4.5.866,6.794.846,1.974-.018,3.946-.1,5.918-.2,3.688-.185,7.393-.56,11.086-.58a2.03,2.03,0,0,0,2-2c0-3.678-.049-7.356-.113-11.033-.036-2.05-.516-4.026-2.707-4.713a10.222,10.222,0,0,0-3.186-.194c-1.378.017-2.755.037-4.132.05-2.417.023-4.837.037-7.253-.054-1.462-.054-2.933-.213-4.4-.145-3.065.141-5.389,1.619-6.276,4.654a24.147,24.147,0,0,0-.531,7.068c.039,2.493.587,4.863,2.8,6.3C335.23,93.966,337.237,90.5,335.083,89.106Z"/><path class="b" d="M331.534,120.091c2.29-9.279,4.694-18.545,6.682-27.895.534-2.511-3.321-3.584-3.857-1.064-1.988,9.35-4.392,18.616-6.682,27.9-.617,2.5,3.24,3.565,3.857,1.063Z"/><path class="b" d="M354.086,91.017a92.171,92.171,0,0,0,.968,10.911q.8,6.456,1.8,12.886c.723,4.7,1.654,9.354,2.465,14.035a115.837,115.837,0,0,1,1.521,19.824,87.675,87.675,0,0,1-.184,9.849,6.218,6.218,0,0,1-.637,2.37.878.878,0,0,1-.36.352,1.338,1.338,0,0,1-.61.162c-2.547.213-2.57,4.215,0,4,5.142-.429,5.666-5.464,5.756-9.668a152.769,152.769,0,0,0-.594-20.962c-.722-6.16-2.079-12.215-3.074-18.331q-.981-6.031-1.772-12.092a106.762,106.762,0,0,1-1.278-13.336c-.011-2.573-4.011-2.579-4,0Z"/><path class="b" d="M343.993,92.052v24.327c0,2.574,4,2.578,4,0V92.052c0-2.574-4-2.578-4,0Z"/><path class="b" d="M336.474,30.725c.311,5.351.536,10.706,1.139,16.034.621,5.482.917,11.018,1.922,16.452.468,2.527,4.324,1.457,3.857-1.064-.959-5.184-1.21-10.473-1.815-15.7s-.8-10.476-1.1-15.719c-.148-2.558-4.149-2.576-4,0Z"/><path class="b" d="M350.111,47.246c-1.06,5.32-1.148,10.788-1.811,16.162a2.011,2.011,0,0,0,2,2,2.049,2.049,0,0,0,2-2c.623-5.043.706-10.268,1.668-15.1a2.051,2.051,0,0,0-1.4-2.46,2.018,2.018,0,0,0-2.46,1.4Z"/><path class="b" d="M324.3,4.3a45.4,45.4,0,0,0,.31,6.088c.253,2.847.566,5.689.9,8.528.716,6.155,1.19,12.35,1.975,18.493,1.141,8.926,3.113,17.734,4.794,26.567a79.686,79.686,0,0,1,1.753,11.769c.1,2.566,4.1,2.579,4,0a74.743,74.743,0,0,0-1.465-10.523c-.731-4-1.552-7.986-2.336-11.977-.9-4.574-1.74-9.172-2.449-13.779-.923-5.993-1.272-12.087-1.985-18.111-.382-3.229-.756-6.458-1.065-9.695A52.234,52.234,0,0,1,328.3,4.3c.12-2.573-3.88-2.567-4,0Z"/><path class="b" d="M326.3,6.3c1.767-.015,3.526-.17,5.283-.352,1.878-.194,3.816-.293,5.669-.661,1.5-.3,2.9-.988,4.4-1.258,1.2-.216,2.447.743,3.581,1.073a17.519,17.519,0,0,0,4.5.377q2.442.053,4.883.063c2.964.012,5.934,0,8.893-.189,2.557-.16,2.575-4.161,0-4-2.959.184-5.929.2-8.893.189q-2.343-.009-4.685-.059A12.643,12.643,0,0,1,345.565,1a8.579,8.579,0,0,0-3.814-.985,25.74,25.74,0,0,0-4.735,1.223,34.581,34.581,0,0,1-5.432.716c-1.757.182-3.516.337-5.283.352-2.573.022-2.579,4.022,0,4Z"/><path class="b" d="M364.27,152.008q27.6-.051,55.193-.1,5.636-.006,11.27-.008c2.574,0,2.578-4,0-4q-25.175,0-50.349.079l-16.114.031c-2.574,0-2.579,4,0,4Z"/><path class="b" d="M410.865,71.149h-4.486a2.029,2.029,0,0,0-2,2c0,6.219.01,12.439-.008,18.659a2.03,2.03,0,0,0,2,2c1.548,0,3.1.07,4.643.074,2.574.008,2.578-3.992,0-4-1.548,0-3.1-.069-4.643-.074l2,2c.018-6.22.008-12.44.008-18.659l-2,2h4.486c2.573,0,2.578-4,0-4Z"/><path class="b" d="M430.733,12.981q-24.215,0-48.429-.057L364.787,12.9c-2.574,0-2.578,4,0,4q28.866.038,57.734.075,4.105,0,8.212.006c2.574,0,2.578-4,0-4Z"/><path class="b" d="M415.061,22.861q-21.992-.029-43.983-.094-3.4-.007-6.809-.011c-2.574,0-2.578,4,0,4,12.639,0,25.277.057,37.916.083q6.438.014,12.876.022c2.574,0,2.578-4,0-4Z"/><path class="b" d="M430.733,22.866q-3.441,0-6.882,0a2,2,0,0,0,0,4q3.441,0,6.882,0a2,2,0,0,0,0-4Z"/><path class="b" d="M417.376,139.966c0-4.3-.021-8.595-.034-12.893q-.037-13.522-.079-27.046-.046-16.1-.094-32.2-.04-13.965-.078-27.929c-.013-4.882.07-9.774-.031-14.655,0-.147,0-.295,0-.442.015-2.575-3.985-2.578-4,0-.023,4.124.013,8.249.023,12.373q.035,13.389.074,26.779.047,16.091.094,32.181.042,14.082.083,28.165.021,7.572.04,15.144c0,.173,0,.347,0,.52,0,2.574,4,2.578,4,0Z"/><path class="b" d="M425.643,149.328c0-4.964-.021-9.927-.033-14.891q-.039-15.777-.079-31.554-.048-18.873-.1-37.745-.039-16.311-.077-32.623c-.013-5.678.07-11.365-.031-17.043,0-.155,0-.31,0-.464.014-2.575-3.986-2.578-4,0-.028,4.789.012,9.58.023,14.37q.033,15.644.073,31.288.046,18.864.094,37.729.042,16.43.083,32.858.021,8.768.041,17.534v.541c0,2.574,4,2.578,4,0Z"/><path class="b" d="M424.006,141.945c2.242,0,4.485-.012,6.727-.012a2,2,0,0,0,0-4c-2.242,0-4.485.008-6.727.012a2,2,0,0,0,0,4Z"/><path class="b" d="M363.707,142.086q25.835-.059,51.669-.141c2.573,0,2.578-4,0-4q-25.834.051-51.669.141c-2.574.006-2.579,4.006,0,4Z"/><path class="b" d="M387.322,30.262c-.162,5.59.815,11.007,4.316,15.533a21.468,21.468,0,0,0,17.431,8.432c2.572-.033,2.579-4.034,0-4a17.46,17.46,0,0,1-14.457-7.086c-2.826-3.82-3.423-8.269-3.29-12.879.075-2.575-3.926-2.573-4,0Z"/><path class="b" d="M395.314,61.563c-.958,2.649-2.068,5.246-3.123,7.857a2,2,0,0,0,.2,1.541,2,2,0,0,0,2.736.718,2.335,2.335,0,0,0,.919-1.2c1.055-2.611,2.166-5.209,3.123-7.858a2.011,2.011,0,0,0-1.4-2.46,2.051,2.051,0,0,0-2.46,1.4Z"/><path class="b" d="M387.726,53.6c-1.5,1.657-3.061,3.268-4.54,4.947a2.118,2.118,0,0,0-.586,1.415,2.036,2.036,0,0,0,.586,1.414,2.014,2.014,0,0,0,1.414.586,1.993,1.993,0,0,0,1.414-.586c1.48-1.68,3.036-3.29,4.541-4.947a2.105,2.105,0,0,0,.585-1.414,2.04,2.04,0,0,0-.585-1.415,2,2,0,0,0-2.829,0Z"/><path class="b" d="M382.35,44.229c-1.321.495-2.613,1.062-3.911,1.611l.477-.2c-.487.206-.975.408-1.469.6a2.167,2.167,0,0,0-1.195.919,2,2,0,0,0,.718,2.737,1.959,1.959,0,0,0,1.541.2c1.091-.415,2.159-.89,3.235-1.344l-.478.2c.71-.3,1.423-.592,2.145-.863a2.156,2.156,0,0,0,1.195-.919,2,2,0,0,0-.717-2.737,1.964,1.964,0,0,0-1.541-.2Z"/><path class="b" d="M380.666,34.352c-1.5-.08-3,.06-4.508-.013a2.014,2.014,0,0,0-2,2,2.044,2.044,0,0,0,2,2c1.5.073,3-.067,4.508.013a2,2,0,0,0,2-2,2.045,2.045,0,0,0-2-2Z"/><path class="b" d="M362.9,102.165c2.143-.133,5.024,1.314,3.143,3.708a2.032,2.032,0,0,0,.882,3.343,3.719,3.719,0,0,1,2.691,2.325,3.608,3.608,0,0,1-1.212,3.321,2.018,2.018,0,0,0,.882,3.342c2.138.477,5.555,2.748,3.423,5.13a2.022,2.022,0,0,0,0,2.829c1.162.934,2.812,1.668,3.451,3.088.562,1.248,1.028,3.3-.306,4.213-2.112,1.445-.114,4.912,2.018,3.454,2.686-1.837,3.28-4.819,2.441-7.851a8.071,8.071,0,0,0-2.011-3.645c-.827-.814-1.866-1.365-2.764-2.088v2.829a6.192,6.192,0,0,0,1.032-7.411,9.568,9.568,0,0,0-6.22-4.405l.882,3.343a7.655,7.655,0,0,0,2.241-7.212,7.816,7.816,0,0,0-5.485-5.119l.883,3.343c1.7-2.165,2.506-4.93.893-7.413a7.569,7.569,0,0,0-6.864-3.124c-2.557.159-2.575,4.16,0,4Z"/><path class="c" d="M261.179,182.9c-4.106-1.546-6.728-5.676-2.594-9.315a38.635,38.635,0,0,0,5.734-6.25c2.756-3.515,2.759-6.443,3.482-10.661a29.051,29.051,0,0,1,3.861-10.61,15.77,15.77,0,0,1,1.877-2.35,10.821,10.821,0,0,1,5.571.179c2.778.963,4.154,4.436,4.154,4.436,3.1,8.57,10.866,20.46,21.114,27.818l.188,1c5.128-.426,8.873,3.606,6.7,10.007a12.606,12.606,0,0,1-2.318,4c.051,2.483-.174,9.333,3.708,13.53,2.478,2.68,9.083,4.984,13.138,5.8l.25.05c-.081.823-.137,1.586-.154,2.232-.074,2.8,1.676,10.173,4.051,14.072v3.183a15.279,15.279,0,0,0-2.12-.885c-9.191-2.432-24.366-1.757-33.287-1.622a41.594,41.594,0,0,0-9.7,1.2l-.159-2.763c-.134-2.336-.21-8.032-1.737-9.77,0,0-.2-.225-.449-.516-3.512.1-13.965-2.558-16.723-4.561a17.191,17.191,0,0,1-4.373-5.087c-1.839-3.266-2.87-13.545-.368-22.661"/><path class="d" d="M312.242,204.211a25.747,25.747,0,0,1-4.695-10.154s-.088-.462-.215-1.133a15.279,15.279,0,0,0,3.934-5.767c1.994-5.873-.994-9.751-5.463-10.024-7.031-4.651-12.989-11.507-17.211-18.191a31.463,31.463,0,0,1-6.458-1.452c-5.106-2.317-9.228-9.714-8.529-15.583,1.559-2.18,2.774-4.611,4.577-6.66A31.486,31.486,0,0,1,296.1,124.831c17.29-2.869,41.824,6.083,44.694,21.241l2.637,6.5c6.1,3.222,8.128,21.36-.207,36.283,5.162.681,9.717,2.48,12.74,6.2,3.78,4.659,3.951,11.1,1.754,16.364-3.345,8.021-9.267,19.363-3.92,26.046-4.09,3.58-12.83-.073-15.747-1.73-3.708-2.107-5.951-5.364-8.111-8.907-2.375-3.9-4.125-11.273-4.051-14.072.017-.646.073-1.41.154-2.231l-.25-.051c-4.055-.811-10.66-3.115-13.138-5.8Q312.448,204.461,312.242,204.211Z"/><path class="a" d="M233.935,264.534c-4.811.006-9.826.131-14.362,1.916-4.867,1.916-8.293,5.471-11.655,9.348-1.771,2.043-3.575,4.278-4.344,6.92a8.26,8.26,0,0,0,.978,6.671c2.278,3.9,5.837,7.075,9.048,10.2,7.959,7.735,17.937,14.81,29.266,16a26.367,26.367,0,0,0,16.521-3.8c2.535-1.563,4.353-4.2,6.1-6.54,2.655-3.56,5.107-7.276,7.487-11.025,1.65-2.6,3.367-5.209,4.775-7.951,1.174-2.287-2.277-4.313-3.454-2.019a139.21,139.21,0,0,1-9.608,15.268,61.857,61.857,0,0,1-5.679,7.4c-.348.37-.714.711-1.088,1.054-.185.17.325-.168-.132.095-.648.374-1.273.779-1.935,1.129a21.886,21.886,0,0,1-7.42,2.368c-10.223,1.3-20.112-4.536-27.642-10.857a102.375,102.375,0,0,1-9.63-9.266,18.531,18.531,0,0,1-3.625-4.951c-.771-1.829.127-3.653,1.14-5.2a44.943,44.943,0,0,1,5.279-6.252,20.531,20.531,0,0,1,5.869-4.364c4.341-2.1,9.393-2.131,14.109-2.137,2.574,0,2.578-4,0-4Z"/><path class="a" d="M231.962,259.956a5.258,5.258,0,0,1-.713-2.325c-.1-1.156-.091-2.318-.1-3.477-.011-2.118.005-4.537-1.256-6.348-1.579-2.269-4.784-2.563-7.228-1.653a5.3,5.3,0,0,0-1.932,1.264c-.195.2-.365.417-.544.628-.107.126-.555.586-.445.527.283-.152-.1-.052-.12-.035.181-.137.329.531.141,0a18.293,18.293,0,0,0-1.047-1.931c-1.2-2.349-3.921-4.969-6.607-5.458-2.988-.545-6.358.88-9.088,1.968-5.753,2.295-13,6.231-14.141,12.975a17.417,17.417,0,0,0,12.034,19.135c2.47.743,3.526-3.116,1.063-3.857a13.423,13.423,0,0,1-9.285-13.844c.611-5.591,7.045-8.857,11.693-10.67,1.305-.509,2.636-.95,3.982-1.335a14.36,14.36,0,0,1,1.836-.45,5.472,5.472,0,0,1,.714-.045,1.466,1.466,0,0,1,.445.044,6.476,6.476,0,0,1,2.539,1.786,4.5,4.5,0,0,1,1.1,1.275c.33.6.6,1.225.934,1.819a4.464,4.464,0,0,0,3.165,2.531,3.959,3.959,0,0,0,3.691-1.349c.762-.839,1.059-1.32,2.253-1.423a2.45,2.45,0,0,1,1.121.057c.371.107-.138-.091.185.071.268.134-.1-.162.182.142.2.217-.171-.268,0-.023a2.528,2.528,0,0,1,.173.286c.2.389.009-.071.1.249.071.242.131.484.183.731a1.58,1.58,0,0,1,.057.37c.116,1.12.094,2.252.1,3.376.011,2.357.047,4.948,1.354,7,1.377,2.166,4.841.162,3.454-2.019Z"/><path class="a" d="M239.362,275.561c3.433-5.468,8.8-9.432,12.646-14.594,4.189-5.621,7.4-11.983,11.755-17.482,6.943-8.766,19.046-13.756,30.064-13.969,5.553-.107,11.11-.259,16.663-.169,3.08.05,6.162.172,9.23.459A36.883,36.883,0,0,1,327.4,231.1c3.877,1.234,7.236,4.621,9.865,7.7a69.587,69.587,0,0,1,8.457,12.9,85.33,85.33,0,0,1,6.265,15.058c1.688,5.614,2.207,11.509,2.812,17.317a2.058,2.058,0,0,0,2,2,2.014,2.014,0,0,0,2-2c-.6-5.71-1.059-11.574-2.593-17.128a85.345,85.345,0,0,0-5.373-13.959,81.682,81.682,0,0,0-8.426-14.12c-2.951-3.9-6.359-7.7-10.657-10.149-4.668-2.656-10.571-2.9-15.814-3.189-6.1-.331-12.219-.205-18.326-.079-5.943.122-11.654.574-17.331,2.489a45.23,45.23,0,0,0-15.961,9.135,44.242,44.242,0,0,0-6.822,8.439c-2.339,3.484-4.627,7-6.943,10.5A62.522,62.522,0,0,1,243.118,265a53.762,53.762,0,0,0-7.21,8.539c-1.372,2.187,2.087,4.2,3.454,2.019Z"/><path class="a" d="M269.54,166.176c-1.052,1.5-1.961,5.442,1.085,6.788,4.173,1.323,5.9-3.239,5.2-5.872C275.257,164.936,272.122,163.1,269.54,166.176Z"/><path class="a" d="M261.711,180.974a5.416,5.416,0,0,1-3.006-2.539c-.56-1.286.2-2.405,1.13-3.281a46.913,46.913,0,0,0,6.824-7.646c1.952-2.873,2.405-6.153,2.939-9.5a28.107,28.107,0,0,1,3.791-10.933c2.148-3.329,5.727-5.428,7.85-8.817,1.37-2.188-2.089-4.2-3.454-2.019-2.037,3.252-5.474,5.328-7.642,8.5a30.043,30.043,0,0,0-4.4,12.2,42.921,42.921,0,0,1-.98,5.284,13.671,13.671,0,0,1-2.632,4.681,39.615,39.615,0,0,1-3.487,3.915c-1.486,1.431-3.092,2.674-3.8,4.695-1.513,4.335,2.113,7.842,5.8,9.31a2.012,2.012,0,0,0,2.46-1.4,2.047,2.047,0,0,0-1.4-2.46Z"/><path class="a" d="M259.093,182.823a46.929,46.929,0,0,0-1.536,13.471,27.048,27.048,0,0,0,1.771,10.038,15.231,15.231,0,0,0,6.7,7.226,43.09,43.09,0,0,0,8.634,2.886c2.828.689,5.979,1.519,8.9,1.1a2.012,2.012,0,0,0,1.4-2.46,2.052,2.052,0,0,0-2.46-1.4c.434-.062.149-.019-.093-.023-.2,0-.406,0-.61-.011-.364-.017-1.049-.083-1.207-.1-1.286-.165-2.563-.432-3.827-.718a48.463,48.463,0,0,1-8.028-2.414,12.17,12.17,0,0,1-5.659-5.49,12.65,12.65,0,0,1-.941-3.08,30.969,30.969,0,0,1-.537-4.584,43.2,43.2,0,0,1,1.354-13.377c.667-2.489-3.19-3.551-3.857-1.063Z"/><path class="a" d="M260.008,194.253a9.2,9.2,0,0,0,3.182,1.351,12.814,12.814,0,0,0,3.53.314,2,2,0,0,0,0-4,11.3,11.3,0,0,1-2.088-.078l.532.071a9.554,9.554,0,0,1-2.385-.636l.478.2a7.011,7.011,0,0,1-1.23-.678,2,2,0,0,0-2.938,2.259,2.245,2.245,0,0,0,.919,1.195Z"/><path class="a" d="M272.477,140.9a7.5,7.5,0,0,0-1.385,1.018c-.444.379-.863.786-1.272,1.2a34.467,34.467,0,0,0-2.769,3.2,8.218,8.218,0,0,0-.833,1.24,2.12,2.12,0,0,0-.2,1.541,2,2,0,0,0,3.655.477,8.489,8.489,0,0,1,.872-1.29l-.313.405c.627-.808,1.3-1.58,2-2.323a18.785,18.785,0,0,1,2.051-1.928l-.4.313a4.028,4.028,0,0,1,.614-.406,2.015,2.015,0,0,0,.718-2.736,2.047,2.047,0,0,0-2.737-.718Z"/><path class="a" d="M281.521,217.593c.2.241-.279-.443-.12-.153.034.061.077.118.112.179.084.141.137.311.227.447-.269-.409-.13-.318-.055-.111.03.081.058.163.085.245q.095.286.169.577c.111.422.2.85.271,1.279.039.227.069.455.106.682.041.254-.056-.46-.013-.089.014.127.03.255.044.382.182,1.635.232,3.277.325,4.918a2,2,0,0,0,4,0c-.1-1.769-.152-3.54-.369-5.3-.255-2.057-.568-4.25-1.954-5.884a2.008,2.008,0,0,0-2.828,0,2.051,2.051,0,0,0,0,2.828Z"/><path class="a" d="M301.368,180.143a9.462,9.462,0,0,1,3.312-1.006,6.253,6.253,0,0,1,2.7.356,3.793,3.793,0,0,1,1.861,1.582,4.91,4.91,0,0,1,.65,2.72c-.052,3.016-1.8,5.482-3.825,7.561a33.306,33.306,0,0,1-3.368,3.149,28.533,28.533,0,0,1-3.53,2.218c-2.242,1.264-.228,4.721,2.019,3.454a31.486,31.486,0,0,0,6.788-5.07c2.265-2.236,4.339-4.629,5.314-7.719a10.655,10.655,0,0,0-.3-7.771,8.014,8.014,0,0,0-5.07-4.148,11.934,11.934,0,0,0-8.577,1.22c-2.3,1.162-.275,4.614,2.019,3.454Z"/><path class="a" d="M305.619,194.589a26.224,26.224,0,0,0,2.538,6.941,16.348,16.348,0,0,0,4.13,5.5,24.767,24.767,0,0,0,6.446,3.429,40.051,40.051,0,0,0,6.529,1.945,2.049,2.049,0,0,0,2.46-1.4,2.019,2.019,0,0,0-1.4-2.46c-3.9-.8-8.225-2.1-11.441-4.527.195.147-.262-.221-.255-.214-.148-.13-.292-.264-.43-.4a9.47,9.47,0,0,1-.74-.859,20.515,20.515,0,0,1-1.848-3.036,22.36,22.36,0,0,1-2.135-5.985,2.019,2.019,0,0,0-2.461-1.4,2.041,2.041,0,0,0-1.4,2.46Z"/><path class="a" d="M281.336,148.863a63.679,63.679,0,0,0,22.033,29.014,2.014,2.014,0,0,0,2.736-.717,2.046,2.046,0,0,0-.717-2.737A62.212,62.212,0,0,1,285.193,147.8c-.877-2.4-4.744-1.362-3.857,1.063Z"/><path class="a" d="M271.523,142.954a18.635,18.635,0,0,0,2.729,9.588,16.483,16.483,0,0,0,6.872,6.675,2.059,2.059,0,0,0,2.737-.718,2.016,2.016,0,0,0-.718-2.736,11.057,11.057,0,0,1-1.654-.948s-.493-.363-.23-.158c-.106-.083-.208-.168-.311-.254-.259-.219-.51-.448-.754-.684a13.653,13.653,0,0,1-2.488-3.2,14.736,14.736,0,0,1-1.623-3.69,16.592,16.592,0,0,1-.468-2.066c-.021-.143-.021-.137,0,.017l-.023-.206c-.014-.17-.032-.341-.043-.511-.025-.371-.031-.742-.026-1.113a2,2,0,0,0-4,0Z"/><path class="a" d="M342.815,190.8c3.637.46,7.463,1.579,10.234,4.088a12.8,12.8,0,0,1,4.085,10.034c-.112,3.833-1.9,7.218-3.362,10.675a52.506,52.506,0,0,0-3.723,11.168c-.71,4.014-.565,8.359,2.023,11.714l.313-2.424c-1.962,1.625-5.279.909-7.486.31a21.96,21.96,0,0,1-7.363-3.34,23.981,23.981,0,0,1-6.387-8.128,33.17,33.17,0,0,1-2.943-9.161c-.635-3.376-.041-6.781.513-10.134a2.062,2.062,0,0,0-1.4-2.461,2.017,2.017,0,0,0-2.46,1.4c-.605,3.664-1.265,7.382-.712,11.085a37.853,37.853,0,0,0,3.258,10.72,27.66,27.66,0,0,0,7.434,9.621,25.382,25.382,0,0,0,8.836,4.214c3.862,1.074,8.267,1.413,11.536-1.294a2,2,0,0,0,.312-2.424c-2.23-2.892-2.136-6.474-1.364-9.891a66.221,66.221,0,0,1,4.173-11.537c1.653-3.821,3.077-7.577,2.763-11.828a16.536,16.536,0,0,0-5.356-11.264c-3.617-3.2-8.226-4.546-12.927-5.14a2.01,2.01,0,0,0-2,2,2.051,2.051,0,0,0,2,2Z"/><path class="a" d="M342.423,154.3a5.137,5.137,0,0,1,1.522,1.368,11.383,11.383,0,0,1,1.407,2.729,25.905,25.905,0,0,1,1.39,7.911,41.971,41.971,0,0,1-4.808,20.738c-1.193,2.278,2.258,4.3,3.454,2.019a45.911,45.911,0,0,0,5.324-23.442c-.263-5-1.387-12.082-6.27-14.777-2.256-1.245-4.276,2.208-2.019,3.454Z"/><path class="a" d="M273.659,145.024c2.2-2.462,3.565-5.5,5.659-8.037a30.611,30.611,0,0,1,7.263-6.316,29.713,29.713,0,0,1,16.046-4.372c9.865-.052,20.543,2.785,28.452,8.851,3.764,2.886,6.85,6.72,7.788,11.453.5,2.523,4.355,1.455,3.857-1.063-2.04-10.3-12.218-16.688-21.387-19.988-10.728-3.862-23.857-5.07-34.29.252a35.1,35.1,0,0,0-9.19,6.849,30.584,30.584,0,0,0-3.772,4.85,35.1,35.1,0,0,1-3.255,4.692c-1.713,1.912,1.107,4.751,2.829,2.829Z"/><path class="a" d="M367.114,312.48l3.177-13.848c.5-2.183,1.041-4.36,1.5-6.551.4-1.928.529-3.854-.563-5.588-2.25-3.573-6.414-3.732-10.182-3.961q-7.053-.43-14.111-.735-14.238-.615-28.492-.721-7.187-.053-14.373.023a111.094,111.094,0,0,0-13.11.413,12.258,12.258,0,0,0-5.96,2.206,11.372,11.372,0,0,0-3.647,5.27,36.239,36.239,0,0,0-1.488,6.33c-.472,2.642-.868,5.3-1.219,7.957a2.009,2.009,0,0,0,2,2,2.052,2.052,0,0,0,2-2,89.047,89.047,0,0,1,2.051-11.61,9.5,9.5,0,0,1,2.051-4.178,7.3,7.3,0,0,1,4.163-1.952,34.094,34.094,0,0,1,5.23-.312q3.22-.066,6.442-.107,6.567-.081,13.134-.055,13.011.053,26.017.529,6.441.236,12.877.576,3.217.17,6.435.366c1.658.1,3.53-.02,5.074.693a2.827,2.827,0,0,1,1.923,3.236c-.339,2.225-1,4.436-1.5,6.63l-3.287,14.325c-.574,2.506,3.281,3.576,3.857,1.064Z"/><path class="c" d="M39.88,60.162c.052,27.8.236,90.453.293,116.773a11.293,11.293,0,0,0,11.25,11.272c36.158.14,148.214-.086,185.217-.15a11.288,11.288,0,0,0,11.275-11.3c-.013-26.958-.056-91.109-.071-116.6a11.288,11.288,0,0,0-11.292-11.285c-38.362,0-148.76-.027-185.376-.033A11.3,11.3,0,0,0,39.88,60.162Z"/><path class="c" d="M40.94,181.013a11.288,11.288,0,0,1-.767-4.078c-.008-3.394-.017-7.393-.028-11.843,44.448-.059,166.163-.271,207.77-.392,0,4.527,0,8.6,0,12.061a11.288,11.288,0,0,1-11.275,11.3c-37,.064-149.059.29-185.217.15A11.3,11.3,0,0,1,40.94,181.013Z"/><path class="c" d="M165.38,190.537c.209,2.2.335,3.877.411,5.4.128,2.6.362,5.3.588,7.905.528,6.084,2.1,9.519,8.463,10.729,1.836.349,2.9,1.094,3.432,2.253s.617,4.768-1.187,4.768c-3.348,0-60.74-.013-66.18-.013-1.762,0-1.922-3.595-1.386-4.755s1.6-1.9,3.432-2.253c6.36-1.21,7.934-4.645,8.462-10.729.227-2.609.461-5.307.589-7.905.076-1.52.2-3.2.411-5.4"/><path class="b" d="M148.672,176.481a4.862,4.862,0,0,1-5.135,4.946c-3.476.015-5.279-2.352-5.289-4.9a5,5,0,0,1,5.044-5.089A5.273,5.273,0,0,1,148.672,176.481Z"/><path class="c" d="M124.877,213.07h37.952"/><path class="a" d="M37.88,60.162q.03,16.458.076,32.916.052,20.117.106,40.232.048,17.823.092,35.646c.013,5.206-.789,11.11,2.43,15.58a13.385,13.385,0,0,0,8.082,5.371,32.24,32.24,0,0,0,6.359.312q13.05.039,26.1.033,16.9,0,33.8-.013,18.7-.015,37.4-.042,18.236-.025,36.47-.056l31.135-.054,12.193-.022c1.841,0,3.734.113,5.568-.058a13.4,13.4,0,0,0,8.792-4.326,13.661,13.661,0,0,0,3.436-9.13c.01-2.2,0-4.405,0-6.608l-.009-16.124-.024-38.723-.024-37.364-.009-14.641c0-2.748.052-5.429-1.031-8.019a13.24,13.24,0,0,0-6.63-6.937c-4.134-1.878-9.1-1.26-13.542-1.26l-13.353,0-32.866-.006L145.05,46.86l-37.434-.007L74.57,46.847l-13.487,0H55.341A43.8,43.8,0,0,0,49.277,47a13.421,13.421,0,0,0-11.4,13.165c-.034,2.575,3.966,2.577,4,0a9.447,9.447,0,0,1,3.673-7.446c2.093-1.589,4.444-1.873,6.98-1.872H63.6l29.311.006,35.466.006,37.127.007,34.774.006,28.261.005h5.583c2.352,0,4.644-.079,6.785,1.08a9.424,9.424,0,0,1,4.849,6.839,43.153,43.153,0,0,1,.092,6.333l.021,32.839.024,38.793q.011,16.9.02,33.808c0,2.178.07,4.369,0,6.546a9.312,9.312,0,0,1-3.937,7.259c-3.458,2.4-8.184,1.69-12.192,1.7q-13.557.024-27.116.048l-34.135.057q-18.357.027-36.715.049-17.656.019-35.315.027-14.9.006-29.8-.008-5.793-.007-11.587-.022a26.784,26.784,0,0,1-5.552-.2,9.441,9.441,0,0,1-6.536-5.185c-1.069-2.274-.857-4.774-.863-7.215q-.008-3.515-.016-7.03-.021-8.349-.043-16.7-.051-19.415-.1-38.829-.048-18.486-.094-36.973-.015-6.962-.029-13.925C41.875,57.589,37.875,57.584,37.88,60.162Z"/><path class="a" d="M40.515,167.293q4.605,0,9.21-.018,8.5-.023,17-.049,11.407-.034,22.814-.074,13.324-.045,26.648-.092,14.253-.051,28.506-.1,14.193-.054,28.386-.11,13.143-.054,26.287-.111,11.106-.048,22.212-.1,8.077-.04,16.157-.09c2.709-.018,5.419-.019,8.127-.071.18,0,.361,0,.541-.014,2.561-.14,2.577-4.14,0-4-1.94.105-3.9.051-5.842.065q-7.18.053-14.361.086-10.45.056-20.9.1-12.734.057-25.466.109-14.026.058-28.052.111-14.329.055-28.66.107l-27.29.1q-11.972.04-23.943.079-9.309.03-18.618.056-5.658.015-11.315.026h-1.44c-2.574,0-2.578,4,0,4Z"/><path class="a" d="M163.38,190.537c.38,4.042.552,8.1.9,12.145.255,2.972.5,6.089,2.019,8.733a10.652,10.652,0,0,0,6.652,4.769c1.1.3,2.831.282,3.473,1.405-.015-.028.162.674.17.774a8.746,8.746,0,0,1-.154,1.574c-.16-.1,1.127-.3.222-.348-.354-.019-.714,0-1.069,0h-3.416l-11.1,0-29.339-.006-20.225,0a1.807,1.807,0,0,0-.447,0c-.017,0-.149-.012-.154,0,.026-.064.514.208.542.2.148-.024-.076.109-.044-.119.025-.184-.151-.833-.155-1.175a2.716,2.716,0,0,1,.121-.9c.657-1.162,2.5-1.125,3.631-1.45a12.154,12.154,0,0,0,3.829-1.786,10.841,10.841,0,0,0,4.046-6.676A74.6,74.6,0,0,0,124,195.934c.1-1.8.242-3.6.411-5.4a2.015,2.015,0,0,0-2-2,2.043,2.043,0,0,0-2,2c-.4,4.2-.577,8.409-.94,12.609-.212,2.459-.444,5.5-2.223,7.32-2.178,2.227-5.573,1.674-7.945,3.521a6.3,6.3,0,0,0-1.25,7.886c1.441,2.417,5.358,1.7,7.775,1.7l11.847,0,30.514.007,12.468,0c2.1,0,4.226.092,6.326,0,3.187-.137,3.9-3.511,3.5-6.125a5.375,5.375,0,0,0-2.2-3.634c-1.417-1.024-3.123-1.136-4.741-1.64a6.353,6.353,0,0,1-4.531-4.608,23.4,23.4,0,0,1-.7-4.436c-.2-2.325-.393-4.652-.517-6.983-.1-1.879-.246-3.753-.422-5.626a2.054,2.054,0,0,0-2-2,2.014,2.014,0,0,0-2,2Z"/><path class="a" d="M124.877,215.07h37.952c2.574,0,2.578-4,0-4H124.877c-2.574,0-2.578,4,0,4Z"/><path class="c" d="M61.473,66.765c0,2.535.006,64.683.006,68.97,19.64,0,111.586.008,112.637.008,0-2.572.026-59.454.032-68.978C151.893,66.767,62.705,66.765,61.473,66.765Z"/><path class="e" d="M76.775,113.319l7.854-.005v10.463c-3.061,0-5.814,0-7.981,0,0-3.184-.019-9.5-.019-10.458Z"/><path class="f" d="M106.394,101.725c0,6.048.022,23.177.019,22.047,3.024-.005,5.768-.008,7.98-.01V99.7l-8,0C106.393,99.9,106.394,100.629,106.394,101.725Z"/><path class="e" d="M91.513,108.319c0-.784,0-1.33,0-1.524l8,0v16.977l-7.982,0C91.535,125.105,91.518,112.809,91.513,108.319Z"/><path class="a" d="M176.123,113.7q.009-20.3.021-40.609,0-3.164,0-6.325a2.029,2.029,0,0,0-2-2H73.332c-3.864,0-7.754-.132-11.617,0-.08,0-.161,0-.242,0a2.029,2.029,0,0,0-2,2q0,11.665,0,23.332l0,35.67q0,4.985,0,9.968a2.03,2.03,0,0,0,2,2q13.715,0,27.43,0l39.313,0,20.9,0c2.574,0,2.578-4,0-4l-38.421,0-36.244,0q-6.487,0-12.977,0l2,2q0-12.293,0-24.584l0-35.319q0-4.533,0-9.067l-2,2H174.148l-2-2q-.011,17.174-.019,34.348l-.006,12.586c0,2.574,4,2.578,4,0Z"/><path class="a" d="M117.068,84.728c-.013-2.221.2-4.494-1.443-6.238a6.052,6.052,0,0,0-4.762-1.634H79.731c-1.339,0-2.719-.094-4.055.019a5.282,5.282,0,0,0-4.668,3.787,11.692,11.692,0,0,0-.214,3.065,6.673,6.673,0,0,0,.574,3.254,5.357,5.357,0,0,0,4.83,2.835c6.785.128,13.58.054,20.366.083q5.807.025,11.612.049a20.657,20.657,0,0,0,5.011-.162,5.31,5.31,0,0,0,3.881-5.059c.115-2.573-3.885-2.567-4,0-.056,1.238-1.144,1.235-2.1,1.231l-3.63-.013-8.847-.037q-9.279-.04-18.558-.079c-1.171,0-2.343-.013-3.514-.013-1.449,0-1.635-.783-1.622-2.089s-.237-2.8,1.447-2.871c1.158-.051,2.331,0,3.49,0h28.361a33.289,33.289,0,0,1,3.751,0c1.776.206,1.217,2.614,1.225,3.872C113.083,87.3,117.083,87.307,117.068,84.728Z"/><path class="a" d="M78.65,123.74c0-3.474-.02-6.947-.021-10.421l-2,2q4,0,8-.005l-2-2v10.445a2,2,0,0,0,4,0V113.314a2.029,2.029,0,0,0-2-2q-4,0-8,.005a2.029,2.029,0,0,0-2,2c0,3.474.02,6.947.021,10.421a2,2,0,0,0,4,0Z"/><path class="a" d="M93.531,123.74c0-5.648-.019-11.3-.02-16.945l-2,2q4,0,8,0l-2-2v16.969c0,2.573,4,2.578,4,0V106.79a2.029,2.029,0,0,0-2-2q-4,0-8,0a2.029,2.029,0,0,0-2,2c0,5.648.02,11.3.02,16.945,0,2.574,4,2.578,4,0Z"/><path class="a" d="M108.413,123.74q0-10.376-.018-20.752,0-1.642,0-3.284l-2,2q4,0,8,0l-2-2v24.06c0,2.573,4,2.578,4,0V99.7a2.029,2.029,0,0,0-2-2q-4,0-8,0a2.029,2.029,0,0,0-2,2q0,10.289.018,20.577,0,1.729,0,3.459c0,2.574,4,2.578,4,0Z"/><path class="a" d="M72.112,125.777q20.426,0,40.853-.016l6.7,0c2.573,0,2.578-4,0-4q-20.094,0-40.187.016l-7.365,0c-2.574,0-2.578,4,0,4Z"/><path class="a" d="M130.28,119.189h13a2,2,0,0,0,0-4h-13a2,2,0,0,0,0,4Z"/><path class="a" d="M130.847,126.078h8.334a2,2,0,0,0,0-4h-8.334a2,2,0,0,0,0,4Z"/><path class="f" d="M153.13,85.043a14.238,14.238,0,0,0-12.561-7.013h-.085c0,.013,0,10.411,0,14.964-1.8,1.96-8.311,8.887-10.028,10.726a14.728,14.728,0,0,0,10.112,3.5c9.128,0,14.547-5.7,14.547-14.728A14.729,14.729,0,0,0,153.13,85.043Z"/><path class="a" d="M156.343,98.245c1.684-6.051.6-12.753-3.872-17.344a17.045,17.045,0,0,0-16.607-4.24,16.3,16.3,0,0,0-11.3,11.569,17.932,17.932,0,0,0,3.407,15.8c4.4,5.118,12.154,6.185,18.368,4.383,2.468-.716,1.418-4.577-1.063-3.857-4.277,1.241-9.663.936-13.193-2.068-3.229-2.747-4.389-7.215-4-11.326a12.362,12.362,0,0,1,7.147-10.044,13.22,13.22,0,0,1,13.155,1.467c4.474,3.449,5.561,9.359,4.1,14.6-.692,2.483,3.166,3.543,3.857,1.063Z"/><path class="a" d="M138.485,78.03V92.994l.586-1.414c-3.314,3.607-6.692,7.154-10.035,10.734-1.756,1.88,1.067,4.715,2.828,2.828q2.7-2.89,5.411-5.773,1.578-1.686,3.155-3.375c.9-.963,1.991-1.825,2.055-3.221.224-4.893,0-9.843,0-14.743,0-2.574-4-2.578-4,0Z"/><path class="c" d="M182.859,150.708h-.135c-.091-1.517-.378-6.266-.688-10.508l-1.461,1.121c-1.13.868-4.722,3.889-5.666,4.778a6.528,6.528,0,0,1-3.825,2.047,6.92,6.92,0,0,1-3.8-.589c-.938-.649-4.91-5.522-7.113-8.458-.889-1.185-2.74-3.815-3.227-4.454.119-.431,7.007-5.169,8.187-6.157.73.89,3.715,4.721,4.665,5.339.991-.869,3.7-6.068,4.592-7.286.746-1.017,1.515-3.153,2.668-4.738.709-1.458,2.939-2.347,4.5-3.15.96-.493,3.893-1.847,5.707-2.56,1.083-1.25,3.011-3.3,4.336-4.719a70.591,70.591,0,0,0,8.308,3.43l.335.08.5-.119a69.725,69.725,0,0,0,8.213-3.391,55.263,55.263,0,0,0,4.144,4.219l.808.707c1.637.737,3.658,1.771,4.792,2.353a20.239,20.239,0,0,1,4.273,2.695,13.535,13.535,0,0,1,2.9,5.541c1.443,6.812,2.955,16.78,3.724,23.856C220.654,150.745,202.1,150.708,182.859,150.708Z"/><path class="g" d="M206.566,138.232c-.746-4.042-2.552-13.413-2.614-14.043.271-.68,1.171-2.411,1.873-3.659-1.859-2.043-4.975-5.564-5.084-5.765l-.834.039c-.112.206-3.131,3.889-4.874,5.93.782,1.189,1.83,2.876,2.3,3.565-.05.8-2.04,12.89-2.37,15.15a52.792,52.792,0,0,0,5.81,4.94c1.23-.89,4.59-3.48,6.04-4.79C206.757,139.28,206.672,138.811,206.566,138.232Z"/><path class="c" d="M156.907,131.71c-1.549-1.926-4.571-2.705-6.222-4.444-1.874-1.974-2.322-5-1.889-7.611.752-4.535,8.026-7.235,10.28-3.185l.247-.239c.917-1.187,3.478-1.69,4.695-.41.993,1.044,1.445,4.278.48,5.655a3.1,3.1,0,0,1-3,.988l.4.357a8.27,8.27,0,0,1,1.895,4.3l.417,2.923-4.852,4.333Z"/><path class="a" d="M187.775,113.786a44.9,44.9,0,0,0-5.624,2.369c-2.015.936-4.256,1.831-5.879,3.382a2.018,2.018,0,0,0,0,2.828,2.04,2.04,0,0,0,2.829,0c.11-.1.227-.2.339-.3-.337.312.026-.012.1-.065.251-.171.511-.326.775-.474.553-.312,1.126-.586,1.7-.867.717-.353,1.43-.71,2.155-1.046q1.37-.638,2.757-1.234c.164-.071.482-.08,0,0a1.5,1.5,0,0,0,.29-.121c.2-.082.4-.163.6-.241.336-.132.674-.261,1.019-.367a2,2,0,1,0-1.063-3.857Z"/><path class="a" d="M211.98,117.643a52.473,52.473,0,0,1,7.937,3.955A7.316,7.316,0,0,1,223,124.931a19.606,19.606,0,0,1,1.4,4.768c1.36,6.96,2.417,14,3.19,21.046a2.059,2.059,0,0,0,2,2,2.014,2.014,0,0,0,2-2c-.851-7.764-2-15.528-3.546-23.184-.775-3.828-2.547-7.242-5.94-9.314a57.144,57.144,0,0,0-9.061-4.461,2.015,2.015,0,0,0-2.46,1.4,2.045,2.045,0,0,0,1.4,2.46Z"/><path class="a" d="M160.737,117.645a2.629,2.629,0,0,1,.429-.421l-.405.312a3.661,3.661,0,0,1,.76-.432l-.478.2a4.36,4.36,0,0,1,1.047-.276l-.532.072a4.026,4.026,0,0,1,.931,0l-.531-.072a3.238,3.238,0,0,1,.73.188l-.477-.2a2.636,2.636,0,0,1,.577.334l-.405-.313a2.37,2.37,0,0,1,.361.368l-.313-.405a3.5,3.5,0,0,1,.395.717l-.2-.478a6.712,6.712,0,0,1,.416,1.62l-.072-.532a7,7,0,0,1,.015,1.742l.071-.532a4.118,4.118,0,0,1-.245.965l.2-.478a2.564,2.564,0,0,1-.284.506l.313-.405a2.4,2.4,0,0,1-.414.41l.4-.312a2.833,2.833,0,0,1-.51.293l.478-.2a3.6,3.6,0,0,1-.884.236l.532-.071a4.619,4.619,0,0,1-1.1,0l.531.071a4.309,4.309,0,0,1-1.023-.268l.478.2a3.573,3.573,0,0,1-.437-.22,2,2,0,0,0-2.019,3.453,6.008,6.008,0,0,0,4.7.563,4.563,4.563,0,0,0,2.4-1.727,4.436,4.436,0,0,0,.714-1.837c.478-2.9-.406-6.981-3.836-7.534a5.862,5.862,0,0,0-2.865.193,4.987,4.987,0,0,0-2.285,1.45,2.166,2.166,0,0,0-.586,1.414,2.032,2.032,0,0,0,.586,1.414,2.01,2.01,0,0,0,1.414.586,1.937,1.937,0,0,0,1.414-.586Z"/><path class="a" d="M160.493,124.236a3.006,3.006,0,0,1,.352.387l-.313-.405a7.86,7.86,0,0,1,.928,1.673l-.2-.477a7.929,7.929,0,0,1,.594,1.991l-.072-.531c.01.082.018.164.022.247a2.109,2.109,0,0,0,.586,1.414,2,2,0,0,0,2.828,0,2,2,0,0,0,.586-1.414,9.49,9.49,0,0,0-.9-3.276,9.244,9.244,0,0,0-.611-1.2,5.638,5.638,0,0,0-.97-1.24,2.1,2.1,0,0,0-1.414-.586,2.036,2.036,0,0,0-1.414.586,2,2,0,0,0,0,2.829Z"/><path class="a" d="M158.321,130.3a12.961,12.961,0,0,0-3.731-2.748c-.582-.329-1.165-.656-1.717-1.033-.127-.086-.254-.173-.375-.268.331.261-.118-.12-.148-.148-.135-.126-.256-.263-.385-.394-.27-.272.052.129-.176-.215a8.2,8.2,0,0,1-.545-.933c-.036-.074-.19-.462-.073-.155-.07-.185-.135-.372-.192-.562a9.376,9.376,0,0,1-.235-.966c0-.025-.083-.667-.043-.259-.022-.232-.04-.465-.049-.7q-.021-.547.012-1.094c.012-.2.03-.393.051-.589-.009.088-.065.349.01-.048a5.542,5.542,0,0,1,.169-.7c.025-.075.058-.149.079-.225.09-.316-.231.4.04-.065.1-.173.191-.349.3-.516a1.374,1.374,0,0,1,.206-.3c-.394.323-.124.15-.009.028.139-.148.273-.3.42-.441.111-.107.694-.681.249-.244a4.777,4.777,0,0,1,1.148-.718c.109-.056.223-.1.331-.16.309-.16-.122.044-.14.058a2.509,2.509,0,0,1,.8-.267c.191-.052.389-.079.579-.13.41-.111-.489.023-.068,0,.076,0,.153-.015.23-.02a5.527,5.527,0,0,1,.681-.006c.074,0,.15.015.223.017.342.007-.508-.129.013.013.171.047.347.108.521.146.376.084-.411-.237-.082-.038.091.056.192.1.284.151.058.035.12.084.181.115.339.167-.321-.331-.06-.051.117.125.42.3.462.478l-.174-.222c.045.064.089.129.13.2.076.141.152.289.234.427s.055.3-.052-.126c.044.174.118.341.165.515.037.139.061.281.095.42.1.4.021-.4.013.087,0,.173.006.341-.009.514.039-.45-.033.065-.062.168a5.348,5.348,0,0,1-.928,1.609q-.2.219-.415.42c-.053.05-.475.4-.188.181a4.8,4.8,0,0,1-.464.31c-.079.048-.74.348-.311.181a2.059,2.059,0,0,0-1.4,2.46,2.015,2.015,0,0,0,2.46,1.4c3.537-1.379,6.243-5.312,4.965-9.138a6.081,6.081,0,0,0-6.113-4.232,9.351,9.351,0,0,0-6.631,3.19A9.918,9.918,0,0,0,147.152,125a9.326,9.326,0,0,0,3.935,5.126c.807.525,1.667.963,2.493,1.457a13.194,13.194,0,0,1,1.115.731c-.258-.192.215.193.305.279a6.536,6.536,0,0,1,.493.533,2.014,2.014,0,0,0,2.828,0,2.042,2.042,0,0,0,0-2.828Z"/><path class="a" d="M144.163,95.374c3.147,5.831,6.373,11.621,9.582,17.418.554,1,1.1,2.006,1.67,3,1.274,2.237,4.731.224,3.454-2.019-3.241-5.689-6.344-11.462-9.494-17.2-.588-1.071-1.178-2.141-1.759-3.216-1.223-2.266-4.677-.249-3.453,2.019Z"/><path class="a" d="M179.161,139.907c-1.816,1.407-3.585,2.9-5.294,4.438-1.01.907-1.939,1.8-3.37,1.831a6.548,6.548,0,0,1-1.857-.18c-.309-.081-.447-.273-.117.01-.144-.124-.278-.259-.412-.394-3.593-3.6-6.4-7.927-9.442-11.976v2.019c-.232.478-.218.231.141-.041.423-.32.323-.263.6-.47.85-.637,1.71-1.261,2.572-1.883,1.528-1.1,3.106-2.161,4.563-3.359h-2.829c1.56,1.914,3.036,4.207,5.07,5.652a2.019,2.019,0,0,0,2.424-.313c1.8-1.712,2.885-4.379,4.14-6.485.563-.944,1.177-1.831,1.673-2.815.625-1.24,1.232-2.922,2.378-3.782a2.063,2.063,0,0,0,.717-2.736,2.013,2.013,0,0,0-2.736-.717c-2.5,1.875-3.527,4.884-5.136,7.454-.725,1.157-1.38,2.358-2.074,3.534-.355.6-.713,1.2-1.094,1.79-.162.25-.321.51-.507.743.243-.305-.134.132-.19.186l2.424-.313c.485.345-.132-.148-.22-.235-.168-.167-.329-.341-.488-.515-.483-.525-.942-1.071-1.4-1.619-.729-.877-1.434-1.773-2.154-2.657a2.038,2.038,0,0,0-2.829,0c-.357.293.131-.094-.034.032s-.326.244-.49.366c-.356.264-.716.524-1.075.784-.939.679-1.881,1.352-2.818,2.032-.917.664-1.831,1.333-2.724,2.028a4.426,4.426,0,0,0-1.359,1.32,2,2,0,0,0,0,2.019c1.724,2.294,3.347,4.655,5.121,6.913,1.074,1.366,2.168,2.718,3.3,4.039a16.135,16.135,0,0,0,2.356,2.46,7.361,7.361,0,0,0,4.814,1.1,8.631,8.631,0,0,0,5.373-2.517c1.879-1.7,3.81-3.36,5.812-4.911a2.011,2.011,0,0,0,0-2.829,2.052,2.052,0,0,0-2.828,0Z"/><path class="a" d="M179.478,133.836c.684,5.59.908,11.254,1.246,16.872a2.045,2.045,0,0,0,2,2,2.018,2.018,0,0,0,2-2c-.338-5.618-.562-11.282-1.246-16.872a2.063,2.063,0,0,0-2-2,2.013,2.013,0,0,0-2,2Z"/><path class="a" d="M216.868,133.777c-.678,5.543-.878,11.159-1.214,16.731a2,2,0,1,0,4,0c.336-5.572.536-11.188,1.214-16.731a2.011,2.011,0,0,0-2-2,2.049,2.049,0,0,0-2,2Z"/><path class="a" d="M182.724,152.708q23.433,0,46.866.037c2.573,0,2.578-4,0-4q-23.433,0-46.866-.037c-2.574,0-2.578,4,0,4Z"/><path class="c" d="M215.877,93.539c.043,0,1.293.461,1.575.961a2.845,2.845,0,0,1,.3,1.14,8.517,8.517,0,0,1-.844,4.515A5.413,5.413,0,0,1,215.523,102a3.191,3.191,0,0,1-1.81.578l-.256.013a16.582,16.582,0,0,1-3.016,5.609,12.023,12.023,0,0,1-6.819,4.352,18.469,18.469,0,0,1-3.458.369,20.691,20.691,0,0,1-3.191-.325,12.168,12.168,0,0,1-7.136-4.288,16.571,16.571,0,0,1-3.083-5.605,2.206,2.206,0,0,1-2.13-.54,5.418,5.418,0,0,1-1.408-1.828,8.5,8.5,0,0,1-.891-4.506,2.835,2.835,0,0,1,.291-1.144,2.011,2.011,0,0,1,1.439-.968c.072-.011.145-.018.218-.022,0,0,.6-12.371,15.782-12.371C215.462,81.322,215.877,93.539,215.877,93.539Z"/><path class="h" d="M192.682,74.465a14.152,14.152,0,0,0-5.914,3.92c-3.389,3.931-4.18,10.078-3.246,15.042l2.315-.63c3.585-2.693,8.288-6.034,11.088-7.7.172.269,1.3,2.368,1.782,3.257.818-.411,5.408-2.938,7.154-3.691,3.176,1.641,6.641,4.34,8.254,7.857l2.222.611a18.482,18.482,0,0,0-.444-9.926c-1.229-3.365-3.127-4.664-5.49-6.093-2.808-4.121-8.693-4.422-13.137-3.781A22.515,22.515,0,0,0,192.682,74.465Z"/><path class="a" d="M192.677,95.427c-.328,1.066-.114,3.517,1.9,3.726,2.665-.016,2.806-2.98,1.909-4.374A2.108,2.108,0,0,0,192.677,95.427Z"/><path class="a" d="M203.555,95.427c-.327,1.066-.114,3.517,1.9,3.726,2.665-.016,2.807-2.98,1.91-4.374A2.109,2.109,0,0,0,203.555,95.427Z"/><path class="a" d="M186.222,100.772c-.37.107.2.048-.006.026-.063-.006-.4.012-.086.009.383,0-.128,0-.126-.066,0-.029.394.223.127.034-.083-.058-.175-.117-.262-.166-.212-.121.32.284.113.09-.162-.152-.32-.3-.475-.458-.322-.331.141.225-.006.008-.054-.08-.111-.158-.164-.239-.119-.181-.227-.368-.328-.559-.06-.114-.117-.23-.172-.346-.023-.049-.046-.1-.067-.147q-.088-.2.045.105a2.134,2.134,0,0,1-.235-.684c-.068-.231-.128-.464-.176-.7-.022-.1-.04-.209-.06-.314-.073-.387.009.228,0-.023a11.86,11.86,0,0,1-.022-1.436c0-.055.022-.4.005-.107-.017.31.036-.1.052-.171.05-.23.028-.073-.033.064.142-.321-.2.166-.056.056.046-.037.269-.239.034-.054-.3.239.112-.072.122-.052l-.238.1.125-.04q.264-.058-.02-.016c-.183.019-.195.021-.037.008a2,2,0,0,0,0-4,4.041,4.041,0,0,0-3.791,3.016,9.495,9.495,0,0,0,.2,4.579c.782,2.822,3.216,6.319,6.606,5.342a2,2,0,0,0-1.063-3.858Z"/><path class="a" d="M211.529,102.057a14.348,14.348,0,0,1-4.185,6.467,10.667,10.667,0,0,1-6.972,2.387,11.355,11.355,0,0,1-7.263-2.2,13.8,13.8,0,0,1-4.427-6.547c-.81-2.43-4.674-1.388-3.857,1.064a17.94,17.94,0,0,0,5.656,8.474,15.325,15.325,0,0,0,9.891,3.2,14.946,14.946,0,0,0,9.36-3.193,18.13,18.13,0,0,0,5.654-8.6c.794-2.455-3.067-3.507-3.857-1.064Z"/><path class="a" d="M215.877,95.539c-.187-.012-.4-.034-.085.01.212.03-.288-.176-.118-.051a1.26,1.26,0,0,1,.113.064q.189.122-.146-.125a.908.908,0,0,0,.18.176c-.1-.027-.2-.357-.1-.1-.176-.433-.038-.1-.009.006.024.088.024.354.037.1.016-.312.01.116.016.187a9.418,9.418,0,0,1-.021,1.435c-.02.248.019.093.01-.056a1.667,1.667,0,0,1-.072.394c-.049.235-.107.469-.176.7-.061.206-.133.408-.2.61-.173.48.118-.218-.017.043-.048.093-.088.19-.135.284-.1.193-.2.383-.316.566-.064.1-.137.2-.2.3-.141.225.232-.25.046-.06-.018.018-.453.482-.46.471.017.025.333-.3,0-.022-.178.145.308-.085.079-.025-.12.031-.242.07-.36.1-.335.095.076-.028.079,0,0,.009-.513.037-.561.039a2,2,0,0,0,0,4,5.352,5.352,0,0,0,4.006-1.688,10.074,10.074,0,0,0,2.13-8.378,4.012,4.012,0,0,0-3.716-2.984,2.011,2.011,0,0,0-2,2,2.048,2.048,0,0,0,2,2Z"/><path class="a" d="M200.438,112.875A28.261,28.261,0,0,1,196.5,111.4l-.293-.123c.151.063.243.1.038.016l-.581-.249q-.589-.255-1.176-.517c-.631-.283-1.26-.57-1.877-.883a2.051,2.051,0,0,0-2.423.313c-1.369,1.465-2.748,2.921-4.077,4.423a2.052,2.052,0,0,0,0,2.828c1.057,1.159,2.195,2.249,3.317,3.344.995.971,1.973,2,3.053,2.879a2.056,2.056,0,0,0,2.829,0,45.3,45.3,0,0,0,3.243-3.793q.952-1.149,1.893-2.307a13.98,13.98,0,0,0,1.191-1.521,2,2,0,0,0-3.454-2.019c-.025.042-.076.083-.091.127-.058.167.407-.515.091-.12q-.328.411-.659.82-.934,1.152-1.883,2.293a44.14,44.14,0,0,1-3.16,3.691h2.829c-1.081-.878-2.059-1.908-3.053-2.879-1.122-1.095-2.261-2.184-3.318-3.343v2.828c1.329-1.5,2.709-2.958,4.077-4.423l-2.423.313c1.527.776,3.117,1.437,4.7,2.1a29,29,0,0,0,4.088,1.533,2,2,0,0,0,1.063-3.857Z"/><path class="a" d="M193.306,121.739c.773,1.185,1.511,2.395,2.3,3.57l-.274-1.01c-.044.558.037-.2,0,.048-.05.328-.1.657-.146.984-.148.976-.3,1.951-.456,2.925q-.564,3.557-1.138,7.111-.218,1.359-.431,2.72c-.194,1.254-.249,2.124.719,3.115a38.519,38.519,0,0,0,5.884,4.914,1.943,1.943,0,0,0,2.019,0c1.177-.857,2.329-1.752,3.473-2.653,1.037-.817,3.111-1.972,3.486-3.332a7.874,7.874,0,0,0-.36-3.04q-.326-1.754-.658-3.5c-.471-2.492-.947-4.983-1.409-7.476-.133-.718-.207-1.473-.392-2.179-.016-.059-.009-.139-.031-.2q-.28,1.7.066.844.131-.273.266-.544c.421-.843.869-1.673,1.326-2.5,1.252-2.252-2.2-4.272-3.453-2.019-.634,1.14-1.271,2.291-1.8,3.485a3.491,3.491,0,0,0-.195,2.223c.249,1.485.542,2.964.821,4.444.656,3.485,1.352,6.965,1.959,10.459l.514-1.946c-1.786,1.594-3.7,3.069-5.635,4.477h2.019a32.834,32.834,0,0,1-5.405-4.627l.514,1.946c.5-3.4,1.078-6.782,1.617-10.172.233-1.465.472-2.93.68-4.4a3.034,3.034,0,0,0-.247-2.3c-.675-1.157-1.45-2.273-2.182-3.394-1.4-2.148-4.865-.146-3.453,2.019Z"/><path class="a" d="M201.273,116.693a28.839,28.839,0,0,0,4.042-1.516c1.563-.654,3.137-1.308,4.649-2.076l-2.424-.313a50.783,50.783,0,0,0,4.144,4.22v-2.829c-1.957,2.132-3.905,4.3-5.984,6.315h2.829c-1.19-1.143-2.255-2.441-3.352-3.671q-1.012-1.135-2.014-2.28c-.222-.255-.445-.511-.664-.769-.071-.084-.14-.171-.213-.254-.254-.292.286.406.182.235a2,2,0,0,0-3.454,2.019,11.64,11.64,0,0,0,1.223,1.485q1,1.154,2.023,2.293c1.126,1.263,2.219,2.6,3.44,3.77a2.037,2.037,0,0,0,2.829,0c2.079-2.013,4.027-4.183,5.983-6.314a2.026,2.026,0,0,0,0-2.829,50.771,50.771,0,0,1-4.144-4.219,2.037,2.037,0,0,0-2.423-.313c-.578.293-1.167.563-1.758.829-.389.175-.779.346-1.171.516l-.58.25-.294.124c.249-.105.157-.066-.037.015a28.383,28.383,0,0,1-3.895,1.455,2,2,0,1,0,1.063,3.857Z"/><path class="a" d="M204.55,83.07c-2.337,1.083-4.559,2.39-6.853,3.556l2.737.717c-.584-1.087-1.139-2.2-1.782-3.256a2.032,2.032,0,0,0-2.736-.718,131.253,131.253,0,0,0-11.089,7.7,2.064,2.064,0,0,0-.717,2.737,2.014,2.014,0,0,0,2.736.717,131.4,131.4,0,0,1,11.088-7.7l-2.736-.717c.643,1.053,1.2,2.169,1.782,3.256a2.039,2.039,0,0,0,2.736.718c2.294-1.166,4.516-2.473,6.852-3.556a2.016,2.016,0,0,0,.718-2.736,2.045,2.045,0,0,0-2.736-.718Z"/><path class="a" d="M205.823,86.92a23.807,23.807,0,0,1,2.129,1.386c.08.058.158.117.237.176.246.185.047.048-.076-.06.164.143.341.272.508.412q.5.421.978.876.453.435.873.9.219.243.427.5c.063.076.125.154.187.23.272.334-.272-.377-.023-.028a14.059,14.059,0,0,1,1.325,2.22,2.007,2.007,0,0,0,1.195.919,2,2,0,0,0,2.259-2.938c-1.615-3.474-4.741-6.154-8-8.044a2,2,0,0,0-2.019,3.454Z"/><path class="a" d="M211.418,75.161c-4.98-5.848-15.271-4.752-21.449-1.69-7.6,3.768-9.773,12.685-8.376,20.487a2.018,2.018,0,0,0,2.461,1.4,2.044,2.044,0,0,0,1.4-2.46c-1.1-6.126.62-13.037,6.537-15.97a20.009,20.009,0,0,1,9-1.853c2.839.034,5.7.675,7.606,2.917,1.672,1.963,4.489-.878,2.829-2.828Z"/><path class="a" d="M218.265,93.662a20.7,20.7,0,0,0-.286-10.529,12.921,12.921,0,0,0-5.3-6.952,2,2,0,1,0-2.019,3.454q.32.216.631.441c.1.074.212.17.049.037.1.08.2.161.293.244a9.076,9.076,0,0,1,1.152,1.184c.207.26-.135-.2.058.085.079.116.159.232.235.35.16.25.307.507.444.77a9.372,9.372,0,0,1,.673,1.685,16.566,16.566,0,0,1,.212,8.168,2.049,2.049,0,0,0,1.4,2.46,2.02,2.02,0,0,0,2.46-1.4Z"/></svg>