<?xml version="1.0" encoding="UTF-8"?>
<svg id="_レイヤー_1" data-name="レイヤー 1" xmlns="http://www.w3.org/2000/svg" viewBox="0 0 742.6 337.08">
  <defs>
    <style>
      .cls-1 {
        fill: #008037;
      }

      .cls-2 {
        fill: #991126;
      }

      .cls-3 {
        fill: #063689;
      }

      .cls-4 {
        fill: #494949;
      }
    </style>
  </defs>
  <g>
    <polygon class="cls-3" points="69.49 119.5 19.73 112.59 19.73 165.82 47.13 165.82 47.13 139.72 69.49 146.68 69.49 164.54 106.27 132.72 69.49 100.89 69.49 119.5"/>
    <polygon class="cls-2" points="334.74 70.24 270.34 26.92 270.34 52.86 181.98 55.29 195.1 67.84 224.22 94.86 270.34 93.59 270.34 117.11 334.74 70.24"/>
    <polygon class="cls-2" points="181.86 55.3 69.55 58.39 69.55 91.35 111.68 125.01 111.68 102.12 111.68 97.96 139.56 97.19 168.74 68.46 181.86 55.3"/>
    <path class="cls-1" d="m218.64,307.44l-13.04-184.04h31.98l-54.57-54.47-54.58,54.47h26.73l-10.74,184.04h74.22Z"/>
  </g>
  <g>
    <path class="cls-4" d="m237.68,245.87c0-40.19,24.22-65.43,65.95-65.43s58.48,29.88,58.48,71.87v3.87h-71.1c1.55,10.82,11.33,15.2,29.88,15.2,12.88,0,26.02-3.09,38.13-9.79v40.45c-18.55,6.44-36.84,9.53-52.81,9.53-43.54,0-68.53-25.25-68.53-65.69Zm53.07-13.4h20.87c0-15.71-2.83-21.38-10.05-21.38s-10.3,6.18-10.82,21.38Z"/>
    <path class="cls-4" d="m374.47,275.49c0-26.02,18.29-36.32,49.46-41.47l20.35-3.35v-3.61c0-7.47-7.47-11.08-22.93-11.08-14.17,0-26.79,3.86-39.67,11.33v-38.38c16.49-5.67,31.43-8.5,53.33-8.5,37.35,0,61.83,16.23,61.83,43.54v83.47h-49.72l-2.58-14.17c-6.96,11.59-17,17.26-32.2,17.26-22.15,0-37.87-15.71-37.87-35.04Zm69.81-5.41v-16.49l-8.5,1.29c-4.64.77-8.5,4.38-8.5,10.56,0,5.67,3.86,9.28,8.76,9.28,3.09,0,6.7-1.8,8.24-4.64Z"/>
    <path class="cls-4" d="m516.42,184.3h52.55v15.46c6.7-10.56,17.52-18.55,33.75-18.55,14.43,0,26.02,7.98,32.72,19.58,11.59-15.2,23.7-19.58,37.1-19.58,22.93,0,39.16,15.71,39.16,40.7v85.53h-52.55v-72.65c0-6.18-4.38-9.79-9.79-9.79-3.35,0-6.96,2.06-9.02,4.64v77.8h-52.55v-72.65c0-6.18-4.38-9.79-9.79-9.79-3.86,0-7.21,1.29-9.02,4.38v78.06h-52.55v-123.14Z"/>
  </g>
</svg>