<?xml version="1.0" encoding="UTF-8"?>
<svg id="_レイヤー_1" data-name="レイヤー 1" xmlns="http://www.w3.org/2000/svg" viewBox="0 0 860.55 392.03">
  <defs>
    <style>
      .cls-1 {
        fill: #008037;
      }

      .cls-2 {
        fill: #991126;
      }

      .cls-3 {
        fill: #063689;
      }

      .cls-4 {
        fill: #494949;
      }
    </style>
  </defs>
  <g>
    <polygon class="cls-3" points="69.49 119.5 19.73 112.59 19.73 165.82 47.13 165.82 47.13 139.72 69.49 146.68 69.49 164.54 106.27 132.72 69.49 100.89 69.49 119.5"/>
    <polygon class="cls-2" points="334.74 70.24 270.34 26.92 270.34 52.86 181.98 55.29 195.1 67.84 224.22 94.86 270.34 93.59 270.34 117.11 334.74 70.24"/>
    <polygon class="cls-2" points="181.86 55.3 69.55 58.39 69.55 91.35 111.68 125.01 111.68 102.12 111.68 97.96 139.56 97.19 168.74 68.46 181.86 55.3"/>
    <path class="cls-1" d="m218.64,307.44l-13.04-184.04h31.98l-54.57-54.47-54.58,54.47h26.73l-10.74,184.04h74.22Z"/>
  </g>
  <g>
    <path class="cls-4" d="m236.68,245.1c0-39.67,25.76-64.92,66.98-64.92s66.98,24.99,66.98,64.4-25.76,66.98-66.98,66.98-66.98-25.76-66.98-66.46Zm79.86.52c0-13.91-5.15-20.87-12.88-20.87s-12.88,6.96-12.88,20.87,5.15,21.38,12.88,21.38,12.88-7.21,12.88-21.38Z"/>
    <path class="cls-4" d="m387.13,184.3h52.55v15.71c6.96-10.05,17-18.81,34.26-18.81,26.54,0,40.96,23.96,40.96,61.05,0,40.96-23.7,68.27-58.99,68.27-5.15,0-11.33-1.03-16.23-3.09v48.43h-52.55v-171.57Zm74.19,62.86c0-13.91-5.15-21.12-13.91-21.12-2.58,0-5.41.77-7.73,2.06v38.13c2.06,1.29,4.9,2.06,7.47,2.06,9.02,0,14.17-6.44,14.17-21.12Z"/>
    <path class="cls-4" d="m531.39,122.99h52.55v44.83h-52.55v-44.83Zm0,61.31h52.55v123.14h-52.55v-123.14Z"/>
    <path class="cls-4" d="m600.43,247.93c0-40.19,24.99-65.43,65.69-65.43,11.33,0,22.93,2.32,34.01,6.44v44.31c-9.02-4.12-17.78-6.44-25.76-6.44-12.11,0-19.84,7.47-19.84,19.58s8.5,19.84,21.38,19.84c8.24,0,16.74-2.83,25.25-8.24v44.31c-12.11,5.41-23.7,8.24-34.52,8.24-40.19,0-66.21-24.22-66.21-62.6Z"/>
    <path class="cls-4" d="m718.42,305.38v-40.19c14.68,7.21,29.11,11.08,44.57,11.08,4.64,0,7.73-1.8,7.73-5.15,0-2.83-2.58-4.64-6.96-5.67l-12.37-2.83c-24.73-5.67-35.81-19.58-35.81-39.93,0-26.02,17.78-42.51,54.61-42.51,17.26,0,33.49,1.8,50.23,5.93v37.61c-14.43-6.96-25.76-9.79-39.41-9.79-5.15,0-8.24,1.8-8.24,5.15,0,2.58,1.8,4.64,4.89,5.41l12.37,2.58c26.54,5.41,38.13,20.61,38.13,41.48,0,25.5-18.55,43.02-56.93,43.02-18.03,0-35.04-2.06-52.81-6.18Z"/>
  </g>
</svg>